<?xml version="1.0" encoding="UTF-8" standalone="no"?>
<!DOCTYPE svg PUBLIC "-//W3C//DTD SVG 1.1//EN" "http://www.w3.org/Graphics/SVG/1.1/DTD/svg11.dtd">
<svg version="1.1" xmlns="http://www.w3.org/2000/svg" xmlns:xlink="http://www.w3.org/1999/xlink" preserveAspectRatio="xMidYMid meet" viewBox="0 0 640 640" width="640" height="640"><defs><path d="M0 320C0 143.39 143.39 0 319.99 0C496.61 0 640 143.39 640 320C640 496.61 496.61 640 319.99 640C143.39 640 0 496.61 0 320Z" id="d5vtIPcWcP"></path><path d="M238.1 394.67C237.49 394.97 237.14 395.13 237.07 395.17C226.73 400.12 214.83 411.34 202.24 423.21C182.09 442.23 159.23 463.77 141.22 460.49C132.7 458.92 125.53 451.89 119.29 439C85.37 368.96 132.76 265.56 154.69 224.34C168.83 197.78 191.11 189.77 214.96 189.77C235.84 189.77 257.92 195.93 276.75 201.18C277.02 201.26 278.39 201.64 280.86 202.32C281.26 202.4 281.49 202.44 281.53 202.44C282.92 202.62 315.75 207.16 315.75 263.73C315.75 274.67 315.75 362.2 315.75 373.14C282.17 373.55 270.44 379.18 238.1 394.67M492.8 220.33C463.07 164.5 401.61 181.64 360.95 192.97C360.54 193.1 357.26 194.01 356.85 194.12C345.5 197.27 337 196.61 331.57 192.17C323.36 185.44 324.26 171.72 324.26 171.6C324.26 152.77 324.27 2.13 324.27 -16.7C334.75 -18.72 342.66 -27.93 342.66 -38.99C342.66 -51.53 332.5 -61.68 319.96 -61.68C307.43 -61.68 297.26 -51.53 297.26 -38.99C297.26 -27.89 305.24 -18.66 315.75 -16.69C315.75 2.09 315.75 152.33 315.75 171.12C315.63 173.16 315 189.54 326.12 198.71C333.81 205.05 344.91 206.26 359.12 202.32C359.53 202.21 362.83 201.29 363.24 201.18C403.55 189.94 458.76 174.54 485.29 224.34C507.23 265.56 554.6 368.96 520.69 439C514.45 451.89 507.28 458.92 498.77 460.49C480.73 463.8 457.89 442.23 437.73 423.21C425.15 411.34 413.25 400.12 402.91 395.17C402.8 395.12 401.99 394.72 401.88 394.67C369.59 379.2 357.77 373.59 324.27 373.15C324.27 362.21 324.27 274.67 324.27 263.73C324.27 202.88 287.51 194.83 282.9 194.05C282.52 193.94 279.42 193.08 279.03 192.97C238.36 181.64 176.91 164.5 147.18 220.33C119.16 272.95 77.3 371.8 111.64 442.71C119.03 458 128.46 466.8 139.68 468.86C161.95 472.94 186.45 449.81 208.09 429.4C220.17 417.99 231.59 407.23 240.75 402.84C240.86 402.79 241.67 402.39 241.78 402.35C273.62 387.09 284.16 382.04 315.75 381.64C315.75 401.63 315.75 561.52 315.75 581.51C305.24 583.48 297.26 592.71 297.26 603.81C297.26 616.35 307.43 626.5 319.96 626.5C332.5 626.5 342.66 616.35 342.66 603.81C342.66 592.75 334.75 583.54 324.27 581.52C324.27 561.53 324.27 401.64 324.27 381.65C355.78 382.06 366.4 387.1 398.2 402.35C398.29 402.39 399.13 402.79 399.23 402.84C408.38 407.23 419.81 417.99 431.89 429.4C451.83 448.21 474.21 469.33 495.03 469.33C496.79 469.33 498.56 469.18 500.31 468.86C511.52 466.8 520.95 458 528.35 442.71C562.7 371.8 520.81 272.95 492.8 220.33" id="f2mTjaPIme"></path><path d="M214.58 393.11C213.97 393.41 213.62 393.57 213.55 393.61C203.21 398.56 191.31 409.78 178.72 421.65C158.57 440.67 135.71 462.21 117.7 458.93C109.18 457.36 102.01 450.33 95.77 437.44C61.85 367.4 109.24 264 131.17 222.78C145.31 196.22 167.59 188.21 191.44 188.21C212.32 188.21 234.4 194.37 253.23 199.62C253.5 199.7 254.87 200.08 257.34 200.76C257.74 200.84 257.97 200.88 258.01 200.88C259.4 201.06 292.23 205.6 292.23 262.17C292.23 273.11 292.23 360.64 292.23 371.58C258.65 371.99 246.92 377.62 214.58 393.11M469.28 218.77C439.55 162.94 378.09 180.08 337.43 191.41C337.02 191.54 333.74 192.45 333.33 192.56C321.98 195.71 313.48 195.05 308.05 190.61C299.84 183.88 300.74 170.16 300.74 170.04C300.74 151.21 300.75 0.57 300.75 -18.26C311.23 -20.28 319.14 -29.49 319.14 -40.55C319.14 -53.09 308.98 -63.24 296.44 -63.24C283.91 -63.24 273.74 -53.09 273.74 -40.55C273.74 -29.45 281.72 -20.22 292.23 -18.25C292.23 0.53 292.23 150.77 292.23 169.56C292.11 171.6 291.48 187.98 302.6 197.15C310.29 203.49 321.39 204.7 335.6 200.76C336.01 200.65 339.31 199.73 339.72 199.62C380.03 188.38 435.24 172.98 461.77 222.78C483.71 264 531.08 367.4 497.17 437.44C490.93 450.33 483.76 457.36 475.25 458.93C457.21 462.24 434.37 440.67 414.21 421.65C401.63 409.78 389.73 398.56 379.39 393.61C379.28 393.56 378.47 393.16 378.36 393.11C346.07 377.64 334.25 372.03 300.75 371.59C300.75 360.65 300.75 273.11 300.75 262.17C300.75 201.32 263.99 193.27 259.38 192.49C259 192.38 255.9 191.52 255.51 191.41C214.84 180.08 153.39 162.94 123.66 218.77C95.64 271.39 53.78 370.24 88.12 441.15C95.51 456.44 104.94 465.24 116.16 467.3C138.43 471.38 162.93 448.25 184.57 427.84C196.65 416.43 208.07 405.67 217.23 401.28C217.34 401.23 218.15 400.83 218.26 400.79C250.1 385.53 260.64 380.48 292.23 380.08C292.23 400.07 292.23 559.96 292.23 579.95C281.72 581.92 273.74 591.15 273.74 602.25C273.74 614.79 283.91 624.94 296.44 624.94C308.98 624.94 319.14 614.79 319.14 602.25C319.14 591.19 311.23 581.98 300.75 579.96C300.75 559.97 300.75 400.08 300.75 380.09C332.26 380.5 342.88 385.54 374.68 400.79C374.77 400.83 375.61 401.23 375.71 401.28C384.86 405.67 396.29 416.43 408.37 427.84C428.31 446.65 450.69 467.77 471.51 467.77C473.27 467.77 475.04 467.62 476.79 467.3C488 465.24 497.43 456.44 504.83 441.15C539.18 370.24 497.29 271.39 469.28 218.77" id="b1AwGj1Kjb"></path><path d="M243.59 365.32C242.9 365.65 242.5 365.84 242.42 365.88C230.76 371.46 217.34 384.11 203.13 397.48C180.4 418.91 154.61 443.17 134.28 439.47C124.68 437.71 116.59 429.79 109.55 415.27C71.28 336.35 124.74 219.86 149.49 173.42C165.44 143.5 190.57 134.48 217.48 134.48C241.04 134.48 265.94 141.41 287.19 147.32C287.49 147.42 289.04 147.85 291.83 148.61C292.27 148.71 292.53 148.75 292.58 148.75C294.15 148.95 331.19 154.06 331.19 217.8C331.19 230.13 331.19 328.74 331.19 341.06C293.3 341.52 280.07 347.86 243.59 365.32M530.93 168.91C497.39 106 428.05 125.31 382.18 138.08C381.72 138.22 378.02 139.25 377.55 139.37C364.75 142.92 355.16 142.18 349.04 137.18C339.77 129.59 340.79 114.14 340.79 114C340.79 92.78 340.8 -76.93 340.8 -98.14C352.62 -100.42 361.55 -110.79 361.55 -123.26C361.55 -137.38 350.09 -148.82 335.94 -148.82C321.8 -148.82 310.33 -137.38 310.33 -123.26C310.33 -110.75 319.33 -100.35 331.19 -98.13C331.19 -76.98 331.19 92.29 331.19 113.46C331.06 115.76 330.35 134.22 342.89 144.55C351.56 151.68 364.09 153.05 380.12 148.61C380.58 148.49 384.3 147.45 384.76 147.32C430.25 134.66 492.53 117.31 522.46 173.42C547.21 219.86 600.66 336.35 562.4 415.27C555.36 429.79 547.27 437.71 537.66 439.47C517.31 443.2 491.55 418.91 468.8 397.48C454.61 384.11 441.19 371.46 429.53 365.88C429.4 365.82 428.48 365.38 428.36 365.32C391.93 347.89 378.6 341.57 340.8 341.08C340.8 328.75 340.8 230.13 340.8 217.8C340.8 149.24 299.33 140.17 294.13 139.3C293.7 139.17 290.2 138.21 289.77 138.08C243.88 125.31 174.56 106 141.02 168.91C109.4 228.19 62.18 339.56 100.91 419.44C109.26 436.67 119.9 446.58 132.55 448.9C157.68 453.51 185.32 427.44 209.73 404.44C223.36 391.6 236.24 379.47 246.57 374.53C246.7 374.47 247.62 374.02 247.74 373.97C283.66 356.78 295.55 351.09 331.19 350.64C331.19 373.16 331.19 553.3 331.19 575.82C319.33 578.04 310.33 588.44 310.33 600.95C310.33 615.07 321.8 626.5 335.94 626.5C350.09 626.5 361.55 615.07 361.55 600.95C361.55 588.48 352.62 578.1 340.8 575.83C340.8 553.31 340.8 373.18 340.8 350.66C376.36 351.12 388.33 356.8 424.21 373.97C424.31 374.02 425.25 374.47 425.38 374.53C435.69 379.47 448.59 391.6 462.22 404.44C484.71 425.64 509.97 449.44 533.45 449.44C535.44 449.44 537.43 449.27 539.4 448.9C552.05 446.58 562.69 436.67 571.04 419.44C609.79 339.56 562.54 228.19 530.93 168.91" id="c51TiZ8fYv"></path><path d="M243.59 365.32C242.9 365.65 242.5 365.84 242.42 365.88C230.76 371.46 217.34 384.11 203.13 397.48C180.4 418.91 154.61 443.17 134.28 439.47C124.68 437.71 116.59 429.79 109.55 415.27C71.28 336.35 124.74 219.86 149.49 173.42C165.44 143.5 190.57 134.48 217.48 134.48C241.04 134.48 265.94 141.41 287.19 147.32C287.49 147.42 289.04 147.85 291.83 148.61C292.27 148.71 292.53 148.75 292.58 148.75C294.15 148.95 331.19 154.06 331.19 217.8C331.19 230.13 331.19 328.74 331.19 341.06C293.3 341.52 280.07 347.86 243.59 365.32M530.93 168.91C497.39 106 428.05 125.31 382.18 138.08C381.72 138.22 378.02 139.25 377.55 139.37C364.75 142.92 355.16 142.18 349.04 137.18C339.77 129.59 340.79 114.14 340.79 114C340.79 92.78 340.8 -76.93 340.8 -98.14C352.62 -100.42 361.55 -110.79 361.55 -123.26C361.55 -137.38 350.09 -148.82 335.94 -148.82C321.8 -148.82 310.33 -137.38 310.33 -123.26C310.33 -110.75 319.33 -100.35 331.19 -98.13C331.19 -76.98 331.19 92.29 331.19 113.46C331.06 115.76 330.35 134.22 342.89 144.55C351.56 151.68 364.09 153.05 380.12 148.61C380.58 148.49 384.3 147.45 384.76 147.32C430.25 134.66 492.53 117.31 522.46 173.42C547.21 219.86 600.66 336.35 562.4 415.27C555.36 429.79 547.27 437.71 537.66 439.47C517.31 443.2 491.55 418.91 468.8 397.48C454.61 384.11 441.19 371.46 429.53 365.88C429.4 365.82 428.48 365.38 428.36 365.32C391.93 347.89 378.6 341.57 340.8 341.08C340.8 328.75 340.8 230.13 340.8 217.8C340.8 149.24 299.33 140.17 294.13 139.3C293.7 139.17 290.2 138.21 289.77 138.08C243.88 125.31 174.56 106 141.02 168.91C109.4 228.19 62.18 339.56 100.91 419.44C109.26 436.67 119.9 446.58 132.55 448.9C157.68 453.51 185.32 427.44 209.73 404.44C223.36 391.6 236.24 379.47 246.57 374.53C246.7 374.47 247.62 374.02 247.74 373.97C283.66 356.78 295.55 351.09 331.19 350.64C331.19 373.16 331.19 553.3 331.19 575.82C319.33 578.04 310.33 588.44 310.33 600.95C310.33 615.07 321.8 626.5 335.94 626.5C350.09 626.5 361.55 615.07 361.55 600.95C361.55 588.48 352.62 578.1 340.8 575.83C340.8 553.31 340.8 373.18 340.8 350.66C376.36 351.12 388.33 356.8 424.21 373.97C424.31 374.02 425.25 374.47 425.38 374.53C435.69 379.47 448.59 391.6 462.22 404.44C484.71 425.64 509.97 449.44 533.45 449.44C535.44 449.44 537.43 449.27 539.4 448.9C552.05 446.58 562.69 436.67 571.04 419.44C609.79 339.56 562.54 228.19 530.93 168.91" id="c5MMKrl6aE"></path><path d="M265.52 308.54C250.54 308.54 242.21 308.54 240.55 308.54C240.55 323.54 240.55 331.86 240.55 333.52C240.55 339.15 235.97 343.74 230.33 343.74C227.62 343.74 225.04 342.68 223.12 340.79C221.2 338.82 220.12 336.25 220.12 333.52C220.12 331.86 220.12 323.54 220.12 308.54C205.13 308.54 196.81 308.54 195.15 308.54C189.53 308.54 184.96 303.97 184.96 298.34C184.96 295.62 186.02 293.04 187.94 291.12C189.86 289.2 192.42 288.14 195.15 288.14C196.81 288.14 205.13 288.14 220.12 288.14C220.12 273.17 220.12 264.84 220.12 263.16C220.12 257.55 224.7 252.97 230.33 252.97C235.97 252.97 240.55 257.55 240.55 263.16C240.55 264.84 240.55 273.17 240.55 288.14C255.53 288.14 263.86 288.14 265.52 288.14C271.15 288.14 275.73 292.72 275.73 298.34C275.73 303.97 271.15 308.54 265.52 308.54M265.52 279.65C255.64 279.65 250.15 279.65 249.05 279.65C249.05 269.76 249.05 264.27 249.05 263.16C249.05 252.86 240.66 244.47 230.33 244.47C220.01 244.47 211.63 252.86 211.63 263.16C211.63 264.27 211.63 269.76 211.63 279.65C201.74 279.65 196.25 279.65 195.15 279.65C190.15 279.65 185.45 281.59 181.93 285.11C178.39 288.64 176.45 293.34 176.45 298.34C176.45 308.66 184.85 317.04 195.15 317.04C196.25 317.04 201.74 317.04 211.63 317.04C211.63 326.93 211.63 332.42 211.63 333.52C211.63 338.5 213.57 343.2 217.11 346.8C220.67 350.31 225.35 352.25 230.33 352.25C240.66 352.25 249.05 343.84 249.05 333.52C249.05 332.42 249.05 326.93 249.05 317.04C258.94 317.04 264.43 317.04 265.52 317.04C275.84 317.04 284.23 308.66 284.23 298.34C284.23 288.03 275.84 279.65 265.52 279.65" id="f3qdRlBOmK"></path><path d="M265.52 308.54C250.54 308.54 242.21 308.54 240.55 308.54C240.55 323.54 240.55 331.86 240.55 333.52C240.55 339.15 235.97 343.74 230.33 343.74C227.62 343.74 225.04 342.68 223.12 340.79C221.2 338.82 220.12 336.25 220.12 333.52C220.12 331.86 220.12 323.54 220.12 308.54C205.13 308.54 196.81 308.54 195.15 308.54C189.53 308.54 184.96 303.97 184.96 298.34C184.96 295.62 186.02 293.04 187.94 291.12C189.86 289.2 192.42 288.14 195.15 288.14C196.81 288.14 205.13 288.14 220.12 288.14C220.12 273.17 220.12 264.84 220.12 263.16C220.12 257.55 224.7 252.97 230.33 252.97C235.97 252.97 240.55 257.55 240.55 263.16C240.55 264.84 240.55 273.17 240.55 288.14C255.53 288.14 263.86 288.14 265.52 288.14C271.15 288.14 275.73 292.72 275.73 298.34C275.73 303.97 271.15 308.54 265.52 308.54M265.52 279.65C255.64 279.65 250.15 279.65 249.05 279.65C249.05 269.76 249.05 264.27 249.05 263.16C249.05 252.86 240.66 244.47 230.33 244.47C220.01 244.47 211.63 252.86 211.63 263.16C211.63 264.27 211.63 269.76 211.63 279.65C201.74 279.65 196.25 279.65 195.15 279.65C190.15 279.65 185.45 281.59 181.93 285.11C178.39 288.64 176.45 293.34 176.45 298.34C176.45 308.66 184.85 317.04 195.15 317.04C196.25 317.04 201.74 317.04 211.63 317.04C211.63 326.93 211.63 332.42 211.63 333.52C211.63 338.5 213.57 343.2 217.11 346.8C220.67 350.31 225.35 352.25 230.33 352.25C240.66 352.25 249.05 343.84 249.05 333.52C249.05 332.42 249.05 326.93 249.05 317.04C258.94 317.04 264.43 317.04 265.52 317.04C275.84 317.04 284.23 308.66 284.23 298.34C284.23 288.03 275.84 279.65 265.52 279.65" id="aghyA4COd"></path><path d="M265.52 308.54C250.54 308.54 242.21 308.54 240.55 308.54C240.55 323.54 240.55 331.86 240.55 333.52C240.55 339.15 235.97 343.74 230.33 343.74C227.62 343.74 225.04 342.68 223.12 340.79C221.2 338.82 220.12 336.25 220.12 333.52C220.12 331.86 220.12 323.54 220.12 308.54C205.13 308.54 196.81 308.54 195.15 308.54C189.53 308.54 184.96 303.97 184.96 298.34C184.96 295.62 186.02 293.04 187.94 291.12C189.86 289.2 192.42 288.14 195.15 288.14C196.81 288.14 205.13 288.14 220.12 288.14C220.12 273.17 220.12 264.84 220.12 263.16C220.12 257.55 224.7 252.97 230.33 252.97C235.97 252.97 240.55 257.55 240.55 263.16C240.55 264.84 240.55 273.17 240.55 288.14C255.53 288.14 263.86 288.14 265.52 288.14C271.15 288.14 275.73 292.72 275.73 298.34C275.73 303.97 271.15 308.54 265.52 308.54M265.52 279.65C255.64 279.65 250.15 279.65 249.05 279.65C249.05 269.76 249.05 264.27 249.05 263.16C249.05 252.86 240.66 244.47 230.33 244.47C220.01 244.47 211.63 252.86 211.63 263.16C211.63 264.27 211.63 269.76 211.63 279.65C201.74 279.65 196.25 279.65 195.15 279.65C190.15 279.65 185.45 281.59 181.93 285.11C178.39 288.64 176.45 293.34 176.45 298.34C176.45 308.66 184.85 317.04 195.15 317.04C196.25 317.04 201.74 317.04 211.63 317.04C211.63 326.93 211.63 332.42 211.63 333.52C211.63 338.5 213.57 343.2 217.11 346.8C220.67 350.31 225.35 352.25 230.33 352.25C240.66 352.25 249.05 343.84 249.05 333.52C249.05 332.42 249.05 326.93 249.05 317.04C258.94 317.04 264.43 317.04 265.52 317.04C275.84 317.04 284.23 308.66 284.23 298.34C284.23 288.03 275.84 279.65 265.52 279.65" id="bRaseO1Sr"></path><path d="M256.73 308.54C241.75 308.54 233.42 308.54 231.76 308.54C231.76 323.54 231.76 331.86 231.76 333.52C231.76 339.15 227.18 343.74 221.54 343.74C218.83 343.74 216.25 342.68 214.33 340.79C212.41 338.82 211.33 336.25 211.33 333.52C211.33 331.86 211.33 323.54 211.33 308.54C196.34 308.54 188.02 308.54 186.36 308.54C180.74 308.54 176.17 303.97 176.17 298.34C176.17 295.62 177.23 293.04 179.15 291.12C181.07 289.2 183.63 288.14 186.36 288.14C188.02 288.14 196.34 288.14 211.33 288.14C211.33 273.17 211.33 264.84 211.33 263.16C211.33 257.55 215.91 252.97 221.54 252.97C227.18 252.97 231.76 257.55 231.76 263.16C231.76 264.84 231.76 273.17 231.76 288.14C246.74 288.14 255.07 288.14 256.73 288.14C262.36 288.14 266.94 292.72 266.94 298.34C266.94 303.97 262.36 308.54 256.73 308.54M256.73 279.65C246.85 279.65 241.36 279.65 240.26 279.65C240.26 269.76 240.26 264.27 240.26 263.16C240.26 252.86 231.87 244.47 221.54 244.47C211.22 244.47 202.84 252.86 202.84 263.16C202.84 264.27 202.84 269.76 202.84 279.65C192.95 279.65 187.46 279.65 186.36 279.65C181.36 279.65 176.66 281.59 173.14 285.11C169.6 288.64 167.66 293.34 167.66 298.34C167.66 308.66 176.06 317.04 186.36 317.04C187.46 317.04 192.95 317.04 202.84 317.04C202.84 326.93 202.84 332.42 202.84 333.52C202.84 338.5 204.78 343.2 208.32 346.8C211.88 350.31 216.56 352.25 221.54 352.25C231.87 352.25 240.26 343.84 240.26 333.52C240.26 332.42 240.26 326.93 240.26 317.04C250.15 317.04 255.64 317.04 256.73 317.04C267.05 317.04 275.44 308.66 275.44 298.34C275.44 288.03 267.05 279.65 256.73 279.65" id="alEi5N7XP"></path><path d="M367.23 301.15C367.23 290.81 375.63 282.42 385.97 282.42C396.31 282.42 404.7 290.81 404.7 301.15C404.7 311.49 396.31 319.89 385.97 319.89C375.63 319.89 367.23 311.49 367.23 301.15Z" id="eaaETSFLU"></path><path d="M367.23 301.15C367.23 290.81 375.63 282.42 385.97 282.42C396.31 282.42 404.7 290.81 404.7 301.15C404.7 311.49 396.31 319.89 385.97 319.89C375.63 319.89 367.23 311.49 367.23 301.15Z" id="b15fT8kaKO"></path><path d="M404.7 338.62C404.7 328.28 413.09 319.89 423.44 319.89C433.78 319.89 442.17 328.28 442.17 338.62C442.17 348.96 433.78 357.37 423.44 357.37C413.09 357.37 404.7 348.96 404.7 338.62Z" id="ak4SrMLdX"></path><path d="M437.21 299.58C437.21 289.24 445.62 280.85 455.96 280.85C466.3 280.85 474.69 289.24 474.69 299.58C474.69 309.93 466.3 318.32 455.96 318.32C445.62 318.32 437.21 309.93 437.21 299.58Z" id="c7kT6dvWs9"></path><path d="M437.21 299.58C437.21 289.24 445.62 280.85 455.96 280.85C466.3 280.85 474.69 289.24 474.69 299.58C474.69 309.93 466.3 318.32 455.96 318.32C445.62 318.32 437.21 309.93 437.21 299.58Z" id="dplNBgzQR"></path><path d="M404.7 263.67C404.7 253.33 413.09 244.93 423.44 244.93C433.78 244.93 442.17 253.33 442.17 263.67C442.17 274.01 433.78 282.42 423.44 282.42C413.09 282.42 404.7 274.01 404.7 263.67Z" id="fk7d30gov"></path><path d="M404.7 263.67C404.7 253.33 413.09 244.93 423.44 244.93C433.78 244.93 442.17 253.33 442.17 263.67C442.17 274.01 433.78 282.42 423.44 282.42C413.09 282.42 404.7 274.01 404.7 263.67Z" id="c73HMfgcF"></path><path d="M710.7 706.73C710.7 696.39 719.09 688 729.44 688C739.78 688 748.17 696.39 748.17 706.73C748.17 717.07 739.78 725.48 729.44 725.48C719.09 725.48 710.7 717.07 710.7 706.73Z" id="c1SC9M7DD"></path></defs><g><g><g><use xlink:href="#d5vtIPcWcP" opacity="1" fill="#01090f" fill-opacity="1"></use><g><use xlink:href="#d5vtIPcWcP" opacity="1" fill-opacity="0" stroke="#000000" stroke-width="1" stroke-opacity="0"></use></g></g><g><use xlink:href="#f2mTjaPIme" opacity="1" fill="#ffffff" fill-opacity="1"></use><g><use xlink:href="#f2mTjaPIme" opacity="1" fill-opacity="0" stroke="#000000" stroke-width="1" stroke-opacity="0"></use></g></g><g><use xlink:href="#b1AwGj1Kjb" opacity="1" fill="#000000" fill-opacity="0"></use><g><use xlink:href="#b1AwGj1Kjb" opacity="1" fill-opacity="0" stroke="#000000" stroke-width="1" stroke-opacity="0"></use></g></g><g><use xlink:href="#c51TiZ8fYv" opacity="1" fill="#000000" fill-opacity="0"></use><g><use xlink:href="#c51TiZ8fYv" opacity="1" fill-opacity="0" stroke="#000000" stroke-width="1" stroke-opacity="0"></use></g></g><g><use xlink:href="#c5MMKrl6aE" opacity="1" fill="#000000" fill-opacity="0"></use><g><use xlink:href="#c5MMKrl6aE" opacity="1" fill-opacity="0" stroke="#000000" stroke-width="1" stroke-opacity="0"></use></g></g><g><use xlink:href="#f3qdRlBOmK" opacity="1" fill="#ffffff" fill-opacity="1"></use><g><use xlink:href="#f3qdRlBOmK" opacity="1" fill-opacity="0" stroke="#000000" stroke-width="1" stroke-opacity="0"></use></g></g><g><use xlink:href="#aghyA4COd" opacity="1" fill="#000000" fill-opacity="0"></use><g><use xlink:href="#aghyA4COd" opacity="1" fill-opacity="0" stroke="#000000" stroke-width="1" stroke-opacity="0"></use></g></g><g><use xlink:href="#bRaseO1Sr" opacity="1" fill="#000000" fill-opacity="0"></use><g><use xlink:href="#bRaseO1Sr" opacity="1" fill-opacity="0" stroke="#000000" stroke-width="1" stroke-opacity="0"></use></g></g><g><use xlink:href="#alEi5N7XP" opacity="1" fill="#000000" fill-opacity="0"></use><g><use xlink:href="#alEi5N7XP" opacity="1" fill-opacity="0" stroke="#000000" stroke-width="1" stroke-opacity="0"></use></g></g><g><use xlink:href="#eaaETSFLU" opacity="1" fill="#ffffff" fill-opacity="1"></use><g><use xlink:href="#eaaETSFLU" opacity="1" fill-opacity="0" stroke="#000000" stroke-width="1" stroke-opacity="0"></use></g></g><g><use xlink:href="#b15fT8kaKO" opacity="1" fill="#000000" fill-opacity="0"></use><g><use xlink:href="#b15fT8kaKO" opacity="1" fill-opacity="0" stroke="#000000" stroke-width="1" stroke-opacity="0"></use></g></g><g><use xlink:href="#ak4SrMLdX" opacity="1" fill="#ffffff" fill-opacity="1"></use><g><use xlink:href="#ak4SrMLdX" opacity="1" fill-opacity="0" stroke="#000000" stroke-width="1" stroke-opacity="0"></use></g></g><g><use xlink:href="#c7kT6dvWs9" opacity="1" fill="#ffffff" fill-opacity="1"></use><g><use xlink:href="#c7kT6dvWs9" opacity="1" fill-opacity="0" stroke="#000000" stroke-width="1" stroke-opacity="0"></use></g></g><g><use xlink:href="#dplNBgzQR" opacity="1" fill="#000000" fill-opacity="0"></use><g><use xlink:href="#dplNBgzQR" opacity="1" fill-opacity="0" stroke="#000000" stroke-width="1" stroke-opacity="0"></use></g></g><g><use xlink:href="#fk7d30gov" opacity="1" fill="#ffffff" fill-opacity="1"></use><g><use xlink:href="#fk7d30gov" opacity="1" fill-opacity="0" stroke="#000000" stroke-width="1" stroke-opacity="0"></use></g></g><g><use xlink:href="#c73HMfgcF" opacity="1" fill="#000000" fill-opacity="0"></use><g><use xlink:href="#c73HMfgcF" opacity="1" fill-opacity="0" stroke="#000000" stroke-width="1" stroke-opacity="0"></use></g></g><g><use xlink:href="#c1SC9M7DD" opacity="1" fill="#000000" fill-opacity="0"></use><g><use xlink:href="#c1SC9M7DD" opacity="1" fill-opacity="0" stroke="#000000" stroke-width="1" stroke-opacity="0"></use></g></g></g></g></svg>