<?xml version="1.0" encoding="UTF-8" standalone="no"?>
<!DOCTYPE svg PUBLIC "-//W3C//DTD SVG 1.1//EN" "http://www.w3.org/Graphics/SVG/1.1/DTD/svg11.dtd">
<svg version="1.1" xmlns="http://www.w3.org/2000/svg" xmlns:xlink="http://www.w3.org/1999/xlink" preserveAspectRatio="xMidYMid meet" viewBox="0 0 640 640" width="640" height="640"><defs><path d="M326.7 640C152.8 640 11.61 496.61 11.61 320C11.61 143.39 152.8 0 326.7 0C500.61 0 641.8 143.39 641.8 320C641.8 496.61 500.61 640 326.7 640Z" id="a1YuU22nro"></path><path d="M251.77 394.67C251.16 394.97 250.81 395.13 250.74 395.17C240.4 400.12 228.5 411.34 215.91 423.21C195.76 442.23 172.9 463.77 154.89 460.49C146.37 458.92 139.2 451.89 132.96 439C99.04 368.96 146.43 265.56 168.36 224.34C182.5 197.78 204.78 189.77 228.63 189.77C249.51 189.77 271.59 195.93 290.42 201.18C290.69 201.26 292.06 201.64 294.53 202.32C294.93 202.4 295.16 202.44 295.2 202.44C296.59 202.62 329.42 207.16 329.42 263.73C329.42 274.67 329.42 362.2 329.42 373.14C295.84 373.55 284.11 379.18 251.77 394.67M506.47 220.33C476.74 164.5 415.28 181.64 374.62 192.97C374.21 193.1 370.93 194.01 370.52 194.12C359.17 197.27 350.67 196.61 345.24 192.17C337.03 185.44 337.93 171.72 337.93 171.6C337.93 152.77 337.94 2.13 337.94 -16.7C348.42 -18.72 356.33 -27.93 356.33 -38.99C356.33 -51.53 346.17 -61.68 333.63 -61.68C321.1 -61.68 310.93 -51.53 310.93 -38.99C310.93 -27.89 318.91 -18.66 329.42 -16.69C329.42 2.09 329.42 152.33 329.42 171.12C329.3 173.16 328.67 189.54 339.79 198.71C347.48 205.05 358.58 206.26 372.79 202.32C373.2 202.21 376.5 201.29 376.91 201.18C417.22 189.94 472.43 174.54 498.96 224.34C520.9 265.56 568.27 368.96 534.36 439C528.12 451.89 520.95 458.92 512.44 460.49C494.4 463.8 471.56 442.23 451.4 423.21C438.82 411.34 426.92 400.12 416.58 395.17C416.47 395.12 415.66 394.72 415.55 394.67C383.26 379.2 371.44 373.59 337.94 373.15C337.94 362.21 337.94 274.67 337.94 263.73C337.94 202.88 301.18 194.83 296.57 194.05C296.19 193.94 293.09 193.08 292.7 192.97C252.03 181.64 190.58 164.5 160.85 220.33C132.83 272.95 90.97 371.8 125.31 442.71C132.7 458 142.13 466.8 153.35 468.86C175.62 472.94 200.12 449.81 221.76 429.4C233.84 417.99 245.26 407.23 254.42 402.84C254.53 402.79 255.34 402.39 255.45 402.35C287.29 387.09 297.83 382.04 329.42 381.64C329.42 401.63 329.42 561.52 329.42 581.51C318.91 583.48 310.93 592.71 310.93 603.81C310.93 616.35 321.1 626.5 333.63 626.5C346.17 626.5 356.33 616.35 356.33 603.81C356.33 592.75 348.42 583.54 337.94 581.52C337.94 561.53 337.94 401.64 337.94 381.65C369.45 382.06 380.07 387.1 411.87 402.35C411.96 402.39 412.8 402.79 412.9 402.84C422.05 407.23 433.48 417.99 445.56 429.4C465.5 448.21 487.88 469.33 508.7 469.33C510.46 469.33 512.23 469.18 513.98 468.86C525.19 466.8 534.62 458 542.02 442.71C576.37 371.8 534.48 272.95 506.47 220.33" id="c32vPHznt"></path><path d="M261.59 366.88C260.9 367.21 260.5 367.4 260.42 367.44C248.76 373.02 235.34 385.67 221.13 399.04C198.4 420.47 172.61 444.73 152.28 441.03C142.68 439.27 134.59 431.35 127.55 416.83C89.28 337.91 142.74 221.42 167.49 174.98C183.44 145.06 208.57 136.04 235.48 136.04C259.04 136.04 283.94 142.97 305.19 148.88C305.49 148.98 307.04 149.41 309.83 150.17C310.27 150.27 310.53 150.31 310.58 150.31C312.15 150.51 349.19 155.62 349.19 219.36C349.19 231.69 349.19 330.3 349.19 342.62C311.3 343.08 298.07 349.42 261.59 366.88M548.93 170.47C515.39 107.56 446.05 126.87 400.18 139.64C399.72 139.78 396.02 140.81 395.55 140.93C382.75 144.48 373.16 143.74 367.04 138.74C357.77 131.15 358.79 115.7 358.79 115.56C358.79 94.34 358.8 -75.37 358.8 -96.58C370.62 -98.86 379.55 -109.23 379.55 -121.7C379.55 -135.82 368.09 -147.26 353.94 -147.26C339.8 -147.26 328.33 -135.82 328.33 -121.7C328.33 -109.19 337.33 -98.79 349.19 -96.57C349.19 -75.42 349.19 93.85 349.19 115.02C349.06 117.32 348.35 135.78 360.89 146.11C369.56 153.24 382.09 154.61 398.12 150.17C398.58 150.05 402.3 149.01 402.76 148.88C448.25 136.22 510.53 118.87 540.46 174.98C565.21 221.42 618.66 337.91 580.4 416.83C573.36 431.35 565.27 439.27 555.66 441.03C535.31 444.76 509.55 420.47 486.8 399.04C472.61 385.67 459.19 373.02 447.53 367.44C447.4 367.38 446.48 366.94 446.36 366.88C409.93 349.45 396.6 343.13 358.8 342.64C358.8 330.31 358.8 231.69 358.8 219.36C358.8 150.8 317.33 141.73 312.13 140.86C311.7 140.73 308.2 139.77 307.77 139.64C261.88 126.87 192.56 107.56 159.02 170.47C127.4 229.75 80.18 341.12 118.91 421C127.26 438.23 137.9 448.14 150.55 450.46C175.68 455.07 203.32 429 227.73 406C241.36 393.16 254.24 381.03 264.57 376.09C264.7 376.03 265.62 375.58 265.74 375.53C301.66 358.34 313.55 352.65 349.19 352.2C349.19 374.72 349.19 554.86 349.19 577.38C337.33 579.6 328.33 590 328.33 602.51C328.33 616.63 339.8 628.06 353.94 628.06C368.09 628.06 379.55 616.63 379.55 602.51C379.55 590.04 370.62 579.66 358.8 577.39C358.8 554.87 358.8 374.74 358.8 352.22C394.36 352.68 406.33 358.36 442.21 375.53C442.31 375.58 443.25 376.03 443.38 376.09C453.69 381.03 466.59 393.16 480.22 406C502.71 427.2 527.97 451 551.45 451C553.44 451 555.43 450.83 557.4 450.46C570.05 448.14 580.69 438.23 589.04 421C627.79 341.12 580.54 229.75 548.93 170.47" id="a8P8IcFfL"></path><path d="M283.52 310.1C268.54 310.1 260.21 310.1 258.55 310.1C258.55 325.1 258.55 333.42 258.55 335.08C258.55 340.71 253.97 345.3 248.33 345.3C245.62 345.3 243.04 344.24 241.12 342.35C239.2 340.38 238.12 337.81 238.12 335.08C238.12 333.42 238.12 325.1 238.12 310.1C223.13 310.1 214.81 310.1 213.15 310.1C207.53 310.1 202.96 305.53 202.96 299.9C202.96 297.18 204.02 294.6 205.94 292.68C207.86 290.76 210.42 289.7 213.15 289.7C214.81 289.7 223.13 289.7 238.12 289.7C238.12 274.73 238.12 266.4 238.12 264.72C238.12 259.11 242.7 254.53 248.33 254.53C253.97 254.53 258.55 259.11 258.55 264.72C258.55 266.4 258.55 274.73 258.55 289.7C273.53 289.7 281.86 289.7 283.52 289.7C289.15 289.7 293.73 294.28 293.73 299.9C293.73 305.53 289.15 310.1 283.52 310.1M283.52 281.21C273.64 281.21 268.15 281.21 267.05 281.21C267.05 271.32 267.05 265.83 267.05 264.72C267.05 254.42 258.66 246.03 248.33 246.03C238.01 246.03 229.63 254.42 229.63 264.72C229.63 265.83 229.63 271.32 229.63 281.21C219.74 281.21 214.25 281.21 213.15 281.21C208.15 281.21 203.45 283.15 199.93 286.67C196.39 290.2 194.45 294.9 194.45 299.9C194.45 310.22 202.85 318.6 213.15 318.6C214.25 318.6 219.74 318.6 229.63 318.6C229.63 328.49 229.63 333.98 229.63 335.08C229.63 340.06 231.57 344.76 235.11 348.36C238.67 351.87 243.35 353.81 248.33 353.81C258.66 353.81 267.05 345.4 267.05 335.08C267.05 333.98 267.05 328.49 267.05 318.6C276.94 318.6 282.43 318.6 283.52 318.6C293.84 318.6 302.23 310.22 302.23 299.9C302.23 289.59 293.84 281.21 283.52 281.21" id="b1FpuNM6E"></path><path d="M283.52 310.1C268.54 310.1 260.21 310.1 258.55 310.1C258.55 325.1 258.55 333.42 258.55 335.08C258.55 340.71 253.97 345.3 248.33 345.3C245.62 345.3 243.04 344.24 241.12 342.35C239.2 340.38 238.12 337.81 238.12 335.08C238.12 333.42 238.12 325.1 238.12 310.1C223.13 310.1 214.81 310.1 213.15 310.1C207.53 310.1 202.96 305.53 202.96 299.9C202.96 297.18 204.02 294.6 205.94 292.68C207.86 290.76 210.42 289.7 213.15 289.7C214.81 289.7 223.13 289.7 238.12 289.7C238.12 274.73 238.12 266.4 238.12 264.72C238.12 259.11 242.7 254.53 248.33 254.53C253.97 254.53 258.55 259.11 258.55 264.72C258.55 266.4 258.55 274.73 258.55 289.7C273.53 289.7 281.86 289.7 283.52 289.7C289.15 289.7 293.73 294.28 293.73 299.9C293.73 305.53 289.15 310.1 283.52 310.1M283.52 281.21C273.64 281.21 268.15 281.21 267.05 281.21C267.05 271.32 267.05 265.83 267.05 264.72C267.05 254.42 258.66 246.03 248.33 246.03C238.01 246.03 229.63 254.42 229.63 264.72C229.63 265.83 229.63 271.32 229.63 281.21C219.74 281.21 214.25 281.21 213.15 281.21C208.15 281.21 203.45 283.15 199.93 286.67C196.39 290.2 194.45 294.9 194.45 299.9C194.45 310.22 202.85 318.6 213.15 318.6C214.25 318.6 219.74 318.6 229.63 318.6C229.63 328.49 229.63 333.98 229.63 335.08C229.63 340.06 231.57 344.76 235.11 348.36C238.67 351.87 243.35 353.81 248.33 353.81C258.66 353.81 267.05 345.4 267.05 335.08C267.05 333.98 267.05 328.49 267.05 318.6C276.94 318.6 282.43 318.6 283.52 318.6C293.84 318.6 302.23 310.22 302.23 299.9C302.23 289.59 293.84 281.21 283.52 281.21" id="eGYudYXkY"></path><path d="M403.97 321.45C393.63 321.45 385.23 313.05 385.23 302.71C385.23 292.37 393.63 283.98 403.97 283.98C414.31 283.98 422.7 292.37 422.7 302.71C422.7 313.05 414.31 321.45 403.97 321.45Z" id="eJJ3eufP5"></path><path d="M441.44 358.93C431.09 358.93 422.7 350.52 422.7 340.18C422.7 329.84 431.09 321.45 441.44 321.45C451.78 321.45 460.17 329.84 460.17 340.18C460.17 350.52 451.78 358.93 441.44 358.93Z" id="e1kgXAxkIR"></path><path d="M473.96 319.88C463.62 319.88 455.21 311.49 455.21 301.14C455.21 290.8 463.62 282.41 473.96 282.41C484.3 282.41 492.69 290.8 492.69 301.14C492.69 311.49 484.3 319.88 473.96 319.88Z" id="cggCbnM2h"></path><path d="M441.44 283.98C431.09 283.98 422.7 275.57 422.7 265.23C422.7 254.89 431.09 246.49 441.44 246.49C451.78 246.49 460.17 254.89 460.17 265.23C460.17 275.57 451.78 283.98 441.44 283.98Z" id="d1Vbk8qXlA"></path></defs><g><g><g><use xlink:href="#a1YuU22nro" opacity="1" fill="#01090f" fill-opacity="1"></use><g><use xlink:href="#a1YuU22nro" opacity="1" fill-opacity="0" stroke="#000000" stroke-width="1" stroke-opacity="0"></use></g></g><g><use xlink:href="#c32vPHznt" opacity="1" fill="#ffffff" fill-opacity="1"></use><g><use xlink:href="#c32vPHznt" opacity="1" fill-opacity="0" stroke="#000000" stroke-width="1" stroke-opacity="0"></use></g></g><g><use xlink:href="#a8P8IcFfL" opacity="1" fill="#000000" fill-opacity="0"></use><g><use xlink:href="#a8P8IcFfL" opacity="1" fill-opacity="0" stroke="#000000" stroke-width="1" stroke-opacity="0"></use></g></g><g><use xlink:href="#b1FpuNM6E" opacity="1" fill="#ffffff" fill-opacity="1"></use><g><use xlink:href="#b1FpuNM6E" opacity="1" fill-opacity="0" stroke="#000000" stroke-width="1" stroke-opacity="0"></use></g></g><g><use xlink:href="#eGYudYXkY" opacity="1" fill="#000000" fill-opacity="0"></use><g><use xlink:href="#eGYudYXkY" opacity="1" fill-opacity="0" stroke="#000000" stroke-width="1" stroke-opacity="0"></use></g></g><g><use xlink:href="#eJJ3eufP5" opacity="1" fill="#ffffff" fill-opacity="1"></use><g><use xlink:href="#eJJ3eufP5" opacity="1" fill-opacity="0" stroke="#000000" stroke-width="1" stroke-opacity="0"></use></g></g><g><use xlink:href="#e1kgXAxkIR" opacity="1" fill="#ffffff" fill-opacity="1"></use><g><use xlink:href="#e1kgXAxkIR" opacity="1" fill-opacity="0" stroke="#000000" stroke-width="1" stroke-opacity="0"></use></g></g><g><use xlink:href="#cggCbnM2h" opacity="1" fill="#ffffff" fill-opacity="1"></use><g><use xlink:href="#cggCbnM2h" opacity="1" fill-opacity="0" stroke="#000000" stroke-width="1" stroke-opacity="0"></use></g></g><g><use xlink:href="#d1Vbk8qXlA" opacity="1" fill="#ffffff" fill-opacity="1"></use><g><use xlink:href="#d1Vbk8qXlA" opacity="1" fill-opacity="0" stroke="#000000" stroke-width="1" stroke-opacity="0"></use></g></g></g></g></svg>