<svg width="32" height="32" xmlns="http://www.w3.org/2000/svg">

 <title/>
 <g>
  <title>background</title>
  <rect fill="none" id="canvas_background" height="402" width="582" y="-1" x="-1"/>
 </g>
 <g>
  <title>Layer 1</title>
  <path fill="#ffffff" id="svg_1" d="m16,31a1,1 0 0 1 -0.6,-0.2l-4,-3a1,1 0 0 1 -0.4,-0.8l0,-9.53a9,9 0 1 1 10,0l0,1.53a1,1 0 0 1 -0.29,0.71l-1.3,1.29l1.3,1.29a1,1 0 0 1 0,1.42l-1.3,1.29l1.3,1.29a1,1 0 0 1 0.29,0.78a1,1 0 0 1 -0.4,0.73l-4,3a1,1 0 0 1 -0.6,0.2zm-3,-4.5l3,2.25l2.48,-1.86l-1.19,-1.18a1,1 0 0 1 0,-1.42l1.3,-1.29l-1.3,-1.29a1,1 0 0 1 0,-1.42l1.71,-1.7l0,-1.67a1,1 0 0 1 0.5,-0.86a7,7 0 1 0 -7,0a1,1 0 0 1 0.5,0.86l0,9.58zm7,2.08l0,0z" class="cls-1"/>
  <circle fill="#101820" id="svg_2" r="1" cy="8" cx="16" class="cls-1"/>
  <path fill="#ffffff" id="svg_3" d="m16,10a2,2 0 1 1 2,-2a2,2 0 0 1 -2,2zm0,-2z" class="cls-1"/>
 </g>
</svg>